# File created by Blade
# Date/Time:  Wed Jan 21 17:16:23 2015
# Frame Rate: 120.000 fps
#------------------------------------------------------
:FULLY-SPECIFIED
:DEGREES
1118
root 21.738020 5.962244 -15.424342 -173.381652 -15.600669 -221.252644
Spine 50.075621 2.193634 -27.023716
Head 28.620532 43.536221 -6.278269
LeftShoulder -9.239858 -25.427227 -20.296356
LeftArm -11.206505 17.477443 -50.160453
LeftForeArm -45.305755 0.000000 4.752432
LeftHand -1.799315 -0.000000 -9.803485
LeftHandThumb1 -26.253704 0.000000 33.147579
RightShoulder 1.867009 -16.713626 -14.778103
RightArm 1.952459 -25.216816 77.968378
RightForeArm -30.077801 -0.000000 59.794942
RightHand -15.822149 -0.000000 -24.133830
RightHandThumb1 -24.326973 -0.000000 -32.862282
LeftUpLeg 1.473969 28.461920 26.265305
LeftLeg 139.249369 -0.000000 -0.000000
LeftFoot 43.339059 12.528587 24.576551
LeftToeBase 13.052510 -0.000000 -0.000000
RightUpLeg -121.612503 -6.374152 43.838202
RightLeg 140.481364 -0.000000 -0.000000
RightFoot 29.496143 -26.851556 14.700760
RightToeBase 31.466748 -0.000000 -0.000000
1119
root 21.733847 5.957458 -15.426897 -173.309298 -15.534327 -221.250295
Spine 50.223088 1.897863 -26.908814
Head 28.454760 43.313330 -6.607417
LeftShoulder -9.356332 -25.371867 -20.375333
LeftArm -11.175637 17.364475 -50.180118
LeftForeArm -45.018209 0.000000 5.064661
LeftHand -2.071244 -0.000000 -9.749644
LeftHandThumb1 -26.253704 0.000000 33.147579
RightShoulder 1.806352 -16.722072 -14.950715
RightArm 1.696622 -25.233980 77.908685
RightForeArm -30.271941 -0.000000 60.514737
RightHand -15.676492 0.000000 -24.037757
RightHandThumb1 -24.326973 -0.000000 -32.862282
LeftUpLeg 1.398647 28.520537 26.245722
LeftLeg 139.540723 -0.000000 -0.000000
LeftFoot 43.274936 12.764275 24.346936
LeftToeBase 13.590367 -0.000000 -0.000000
RightUpLeg -121.582569 -6.228951 43.766830
RightLeg 140.499388 -0.000000 -0.000000
RightFoot 29.485441 -26.887560 14.704806
RightToeBase 31.403139 -0.000000 -0.000000
1120
root 21.729983 5.954240 -15.432854 -173.254915 -15.466851 -221.245726
Spine 50.379730 1.578308 -26.871662
Head 28.304238 43.179463 -6.886328
LeftShoulder -9.464529 -25.656196 -20.304996
LeftArm -11.591314 17.404438 -50.352060
LeftForeArm -45.119565 -0.000000 5.453688
LeftHand -2.159940 0.000000 -10.051817
LeftHandThumb1 -26.253704 0.000000 33.147579
RightShoulder 1.778856 -16.695207 -15.081443
RightArm 1.459175 -25.315428 77.787403
RightForeArm -30.494882 -0.000000 61.215373
RightHand -15.588020 -0.000000 -23.953123
RightHandThumb1 -24.326973 -0.000000 -32.862282
LeftUpLeg 1.349425 28.551685 26.239716
LeftLeg 139.806765 -0.000000 -0.000000
LeftFoot 43.334008 13.341573 23.985128
LeftToeBase 14.167069 -0.000000 -0.000000
RightUpLeg -121.538264 -6.115011 43.696645
RightLeg 140.532354 -0.000000 -0.000000
RightFoot 29.516935 -26.836781 14.511932
RightToeBase 31.109056 -0.000000 -0.000000
1121
root 21.730037 5.953769 -15.437700 -173.184220 -15.396533 -221.234301
Spine 50.514567 1.247860 -26.810757
Head 28.204623 43.097988 -7.159702
LeftShoulder -9.685698 -25.418965 -20.351768
LeftArm -11.309126 17.387735 -50.343886
LeftForeArm -45.168427 -0.000000 5.625993
LeftHand -2.376232 -0.000000 -10.144997
LeftHandThumb1 -26.253704 0.000000 33.147579
RightShoulder 1.779254 -16.749112 -15.218244
RightArm 1.270862 -25.314897 77.666015
RightForeArm -30.843734 0.000000 61.949385
RightHand -15.542500 -0.000000 -23.867223
RightHandThumb1 -24.326973 -0.000000 -32.862282
LeftUpLeg 1.259973 28.512305 26.217329
LeftLeg 140.122807 -0.000000 -0.000000
LeftFoot 43.269228 13.594724 23.782756
LeftToeBase 15.119733 -0.000000 -0.000000
RightUpLeg -121.494019 -5.994048 43.657577
RightLeg 140.535699 -0.000000 -0.000000
RightFoot 29.541763 -26.912713 14.591611
RightToeBase 31.137525 -0.000000 -0.000000
1122
root 21.729665 5.952697 -15.445627 -173.146308 -15.327592 -221.228150
Spine 50.669257 0.944432 -26.809409
Head 28.057224 43.033359 -7.420621
LeftShoulder -9.804230 -25.561814 -20.187788
LeftArm -11.598597 17.144302 -50.540542
LeftForeArm -44.972878 0.000000 5.923487
LeftHand -2.363736 -0.000000 -10.543705
LeftHandThumb1 -26.253704 0.000000 33.147579
RightShoulder 1.791464 -16.694027 -15.289356
RightArm 0.977678 -25.420802 77.537856
RightForeArm -31.287046 -0.000000 62.678023
RightHand -15.718994 -0.000000 -24.107071
RightHandThumb1 -24.326973 -0.000000 -32.862282
LeftUpLeg 1.211533 28.444546 26.193476
LeftLeg 140.421745 -0.000000 -0.000000
LeftFoot 43.322052 14.097772 23.432413
LeftToeBase 15.735321 -0.000000 -0.000000
RightUpLeg -121.427053 -5.902762 43.636317
RightLeg 140.540297 -0.000000 -0.000000
RightFoot 29.609685 -27.022761 14.591543
RightToeBase 30.996759 -0.000000 -0.000000
